<mxfile host="65bd71144e">
    <diagram id="oyy0EHfN1XjvSNSjgofk" name="ページ1">
        <mxGraphModel dx="1605" dy="832" grid="1" gridSize="10" guides="1" tooltips="1" connect="1" arrows="1" fold="1" page="1" pageScale="1" pageWidth="827" pageHeight="1169" math="0" shadow="0">
            <root>
                <mxCell id="0"/>
                <mxCell id="1" parent="0"/>
                <mxCell id="2" value="&lt;b&gt;Google &lt;/b&gt;Cloud Platform" style="fillColor=#F6F6F6;strokeColor=none;shadow=0;gradientColor=none;fontSize=14;align=left;spacing=10;fontColor=#717171;9E9E9E;verticalAlign=top;spacingTop=-4;fontStyle=0;spacingLeft=40;html=1;rotation=0;resizable=1;recursiveResize=0;autosize=0;" parent="1" vertex="1">
                    <mxGeometry x="370" y="152" width="590" height="508" as="geometry"/>
                </mxCell>
                <mxCell id="3" value="" style="shape=mxgraph.gcp2.google_cloud_platform;fillColor=#F6F6F6;strokeColor=none;shadow=0;gradientColor=none;" parent="2" vertex="1">
                    <mxGeometry width="23" height="20" relative="1" as="geometry">
                        <mxPoint x="20" y="10" as="offset"/>
                    </mxGeometry>
                </mxCell>
                <mxCell id="14" value="" style="strokeColor=#dddddd;shadow=1;strokeWidth=1;rounded=1;absoluteArcSize=1;arcSize=2;" parent="2" vertex="1">
                    <mxGeometry x="46" y="100" width="130" height="60" as="geometry"/>
                </mxCell>
                <mxCell id="15" value="Cloud Run" style="editableCssRules=.*;fontColor=#999999;shape=image;verticalLabelPosition=middle;labelBackgroundColor=#ffffff;verticalAlign=middle;labelPosition=right;align=left;spacingLeft=20;part=1;points=[];imageAspect=0;image=data:image/svg+xml,PHN2ZyB4bWxucz0iaHR0cDovL3d3dy53My5vcmcvMjAwMC9zdmciIHhtbG5zOnY9Imh0dHBzOi8vdmVjdGEuaW8vbmFubyIgd2lkdGg9IjM2NS40NjQ5OTY3NzA0MjQ5MyIgaGVpZ2h0PSIzNzkuMjIyOTk0NDYzNTc3OTUiIHZpZXdCb3g9IjAgMCA5Ni42OTU5OTkxNDU1MDc4MSAxMDAuMzM1OTk4NTM1MTU2MjUiPiYjeGE7PHN0eWxlIHR5cGU9InRleHQvY3NzIj4mI3hhOwkuc3Qwe2ZpbGw6IzQyODVmNDt9JiN4YTsJLnN0MXtmaWxsOiNhZWNiZmE7fSYjeGE7PC9zdHlsZT4mI3hhOwk8cGF0aCBjbGFzcz0ic3QwIiBkPSJNMjkuNzk0IDEwMC4zMzZMNDYuOTIgNTAuMTY4aDQ5Ljc3NnpNMCA5OS42NzFsMTIuOTc2LTQ5LjUwMkgyOS4yMkwxNi44OTcgOTIuMDU0eiIvPiYjeGE7CTxwYXRoIGNsYXNzPSJzdDEiIGQ9Ik0yOS43OTQgMEw0Ni45MiA1MC4xNjhoNDkuNzc2ek0wIC42NjZsMTIuOTc2IDQ5LjUwMkgyOS4yMkwxNi44OTcgOC4yODN6Ii8+JiN4YTs8L3N2Zz4=;" parent="14" vertex="1">
                    <mxGeometry width="30" height="30" relative="1" as="geometry">
                        <mxPoint x="15" y="15" as="offset"/>
                    </mxGeometry>
                </mxCell>
                <mxCell id="27" value="" style="strokeColor=#dddddd;shadow=1;strokeWidth=1;rounded=1;absoluteArcSize=1;arcSize=2;" parent="2" vertex="1">
                    <mxGeometry x="260" y="100" width="120" height="60" as="geometry"/>
                </mxCell>
                <mxCell id="28" value="Logging" style="editableCssRules=.*;fontColor=#999999;shape=image;verticalLabelPosition=middle;labelBackgroundColor=#ffffff;verticalAlign=middle;labelPosition=right;align=left;spacingLeft=20;part=1;points=[];imageAspect=0;image=data:image/svg+xml,PHN2ZyB4bWxucz0iaHR0cDovL3d3dy53My5vcmcvMjAwMC9zdmciIHhtbG5zOnY9Imh0dHBzOi8vdmVjdGEuaW8vbmFubyIgd2lkdGg9IjIwIiBoZWlnaHQ9IjE5IiB2aWV3Qm94PSIwIDAgMjAgMTkiPiYjeGE7CTxzdHlsZSB0eXBlPSJ0ZXh0L2NzcyI+JiN4YTsJLnN0MHtmaWxsOiM0Mjg1ZjQ7fSYjeGE7CS5zdDF7ZmlsbDojNjY5ZGY2O30mI3hhOwkuc3Qye2ZpbGw6I2FlY2JmYTt9JiN4YTsJPC9zdHlsZT4mI3hhOwk8ZyBjbGFzcz0ic3QwIj4mI3hhOwkJPHBhdGggZD0iTTQgOWg0djJINHptLTIgN2g2djJIMnoiLz4mI3hhOwkJPHBhdGggZD0iTTQgNEgydjEyaDJ6Ii8+JiN4YTsJPC9nPiYjeGE7CTxwYXRoIGNsYXNzPSJzdDEiIGQ9Ik0yMCAxSDd2NGgxM3ptMCA3SDd2NGgxM3ptMCA3SDd2NGgxM3oiLz4mI3hhOwk8cGF0aCBjbGFzcz0ic3QyIiBkPSJNNiAwSDB2Nmg2eiIvPiYjeGE7PC9zdmc+;" parent="27" vertex="1">
                    <mxGeometry width="30" height="28" relative="1" as="geometry">
                        <mxPoint x="15" y="16" as="offset"/>
                    </mxGeometry>
                </mxCell>
                <mxCell id="30" value="" style="edgeStyle=orthogonalEdgeStyle;fontSize=12;html=1;endArrow=blockThin;endFill=1;rounded=0;strokeWidth=2;endSize=4;startSize=4;dashed=0;strokeColor=#4284F3;entryX=0;entryY=0.5;entryDx=0;entryDy=0;exitX=1;exitY=0.5;exitDx=0;exitDy=0;" parent="2" source="14" target="27" edge="1">
                    <mxGeometry width="100" relative="1" as="geometry">
                        <mxPoint x="170" y="168" as="sourcePoint"/>
                        <mxPoint x="270" y="168" as="targetPoint"/>
                    </mxGeometry>
                </mxCell>
                <mxCell id="31" value="" style="strokeColor=#dddddd;shadow=1;strokeWidth=1;rounded=1;absoluteArcSize=1;arcSize=2;" parent="2" vertex="1">
                    <mxGeometry x="46" y="228" width="130" height="60" as="geometry"/>
                </mxCell>
                <mxCell id="32" value="BigQuery" style="editableCssRules=.*;fontColor=#999999;shape=image;verticalLabelPosition=middle;labelBackgroundColor=#ffffff;verticalAlign=middle;labelPosition=right;align=left;spacingLeft=20;part=1;points=[];imageAspect=0;image=data:image/svg+xml,PHN2ZyB4bWxucz0iaHR0cDovL3d3dy53My5vcmcvMjAwMC9zdmciIHhtbG5zOnY9Imh0dHBzOi8vdmVjdGEuaW8vbmFubyIgd2lkdGg9IjIwLjAwMTA0NTIyNzA1MDc4IiBoZWlnaHQ9IjIwLjAwMTA0NTIyNzA1MDc4IiBmaWxsLXJ1bGU9ImV2ZW5vZGQiIHZpZXdCb3g9IjAgMCAyMC4wMDEwNDUyMjcwNTA3OCAyMC4wMDEwNDUyMjcwNTA3OCI+JiN4YTsJPHN0eWxlIHR5cGU9InRleHQvY3NzIj4mI3hhOwkuc3Qwe2ZpbGw6I2FlY2JmYTt9JiN4YTsJLnN0MXtmaWxsOiM2NjlkZjY7fSYjeGE7CS5zdDJ7ZmlsbDojNDI4NWY0O30mI3hhOwk8L3N0eWxlPiYjeGE7CTxwYXRoIGNsYXNzPSJzdDAiIGQ9Ik00LjczIDguODN2Mi42M2E0LjkxIDQuOTEgMCAwIDAgMS43MSAxLjc0VjguODN6Ii8+JiN4YTsJPHBhdGggY2xhc3M9InN0MSIgZD0iTTcuODkgNi40MXY3LjUzQTcuNjIgNy42MiAwIDAgMCA5IDE0YTggOCAwIDAgMCAxIDBWNi40MXoiLz4mI3hhOwk8cGF0aCBjbGFzcz0ic3QwIiBkPSJNMTEuNjQgOS44NnYzLjI5YTUgNSAwIDAgMCAxLjctMS44MlY5Ljg2eiIvPiYjeGE7CTxwYXRoIGNsYXNzPSJzdDIiIGQ9Ik0xNS43NCAxNC4zMmwtMS40MiAxLjQyYS40Mi40MiAwIDAgMCAwIC42bDMuNTQgMy41NGEuNDIuNDIgMCAwIDAgLjU5IDBsMS40My0xLjQzYS40Mi40MiAwIDAgMCAwLS41OWwtMy41NC0zLjU0YS40Mi40MiAwIDAgMC0uNiAwIi8+JiN4YTsJPHBhdGggY2xhc3M9InN0MSIgZD0iTTkgMGE5IDkgMCAxIDAgMCAxOEE5IDkgMCAxIDAgOSAwbTAgMTUuNjlhNi42OCA2LjY4IDAgMCAxIC4wMDctMTMuMzYgNi42OCA2LjY4IDAgMCAxIDQuNzI3IDExLjQwM0E2LjY4IDYuNjggMCAwIDEgOSAxNS42OSIvPiYjeGE7PC9zdmc+;" parent="31" vertex="1">
                    <mxGeometry width="30" height="30" relative="1" as="geometry">
                        <mxPoint x="15" y="15" as="offset"/>
                    </mxGeometry>
                </mxCell>
                <mxCell id="39" value="VPC" style="sketch=0;points=[[0,0,0],[0.25,0,0],[0.5,0,0],[0.75,0,0],[1,0,0],[1,0.25,0],[1,0.5,0],[1,0.75,0],[1,1,0],[0.75,1,0],[0.5,1,0],[0.25,1,0],[0,1,0],[0,0.75,0],[0,0.5,0],[0,0.25,0]];rounded=1;absoluteArcSize=1;arcSize=2;html=1;strokeColor=none;gradientColor=none;shadow=0;dashed=0;fontSize=12;fontColor=#9E9E9E;align=left;verticalAlign=top;spacing=10;spacingTop=-4;fillColor=#E1F5FE;" parent="2" vertex="1">
                    <mxGeometry x="17" y="322" width="206" height="142" as="geometry"/>
                </mxCell>
                <mxCell id="40" value="" style="strokeColor=#dddddd;shadow=1;strokeWidth=1;rounded=1;absoluteArcSize=1;arcSize=2;" parent="2" vertex="1">
                    <mxGeometry x="46" y="367" width="130" height="60" as="geometry"/>
                </mxCell>
                <mxCell id="41" value="Compute&#10;Engine" style="editableCssRules=.*;fontColor=#999999;shape=image;verticalLabelPosition=middle;labelBackgroundColor=#ffffff;verticalAlign=middle;labelPosition=right;align=left;spacingLeft=20;part=1;points=[];imageAspect=0;image=data:image/svg+xml,PHN2ZyB4bWxucz0iaHR0cDovL3d3dy53My5vcmcvMjAwMC9zdmciIHhtbG5zOnY9Imh0dHBzOi8vdmVjdGEuaW8vbmFubyIgd2lkdGg9IjIwIiBoZWlnaHQ9IjIwIiB2aWV3Qm94PSIwIDAgMjAgMjAiPiYjeGE7CTxzdHlsZSB0eXBlPSJ0ZXh0L2NzcyI+JiN4YTsJLnN0MHtmaWxsOiM0Mjg1ZjQ7fSYjeGE7CS5zdDF7ZmlsbDojNjY5ZGY2O30mI3hhOwkuc3Qye2ZpbGw6I2FlY2JmYTt9JiN4YTsJPC9zdHlsZT4mI3hhOwk8cGF0aCBjbGFzcz0ic3QyIiBkPSJNNyA3aDZ2Nkg3eiIvPiYjeGE7CTxwYXRoIGNsYXNzPSJzdDEiIGQ9Ik05IDBoMnY0SDl6TTUgMGgydjRINXptOCAwaDJ2NGgtMnoiLz4mI3hhOwk8cGF0aCBjbGFzcz0ic3QwIiBkPSJNOSAxNmgydjRIOXptLTQgMGgydjRINXptOCAwaDJ2NGgtMnptMy01VjloNHYyem0wIDR2LTJoNHYyem0wLThWNWg0djJ6Ii8+JiN4YTsJPHBhdGggY2xhc3M9InN0MSIgZD0iTTAgMTFWOWg0djJ6bTAgNHYtMmg0djJ6bTAtOFY1aDR2MnoiLz4mI3hhOwk8cGF0aCBjbGFzcz0ic3QyIiBkPSJNMyAzdjE0aDE0VjN6bTEyIDEySDVWNWgxMHoiLz4mI3hhOwk8cGF0aCBjbGFzcz0ic3QxIiBkPSJNMTAgMTBsLTMgM2g2eiIvPiYjeGE7CTxwYXRoIGNsYXNzPSJzdDAiIGQ9Ik0xMyA3bC0zIDMgMyAzeiIvPiYjeGE7PC9zdmc+;" parent="40" vertex="1">
                    <mxGeometry width="30" height="30" relative="1" as="geometry">
                        <mxPoint x="15" y="15" as="offset"/>
                    </mxGeometry>
                </mxCell>
                <mxCell id="46" value="" style="edgeStyle=orthogonalEdgeStyle;fontSize=12;html=1;endArrow=blockThin;endFill=1;rounded=0;strokeWidth=2;endSize=4;startSize=4;dashed=0;strokeColor=#4284F3;exitX=1;exitY=0.5;exitDx=0;exitDy=0;entryX=0.5;entryY=1;entryDx=0;entryDy=0;" parent="2" source="40" target="27" edge="1">
                    <mxGeometry width="100" relative="1" as="geometry">
                        <mxPoint x="390" y="428" as="sourcePoint"/>
                        <mxPoint x="490" y="428" as="targetPoint"/>
                    </mxGeometry>
                </mxCell>
                <mxCell id="47" value="" style="strokeColor=#dddddd;shadow=1;strokeWidth=1;rounded=1;absoluteArcSize=1;arcSize=2;" parent="2" vertex="1">
                    <mxGeometry x="420" y="278" width="110" height="60" as="geometry"/>
                </mxCell>
                <mxCell id="48" value="Cloud&#10;DNS" style="editableCssRules=.*;fontColor=#999999;shape=image;verticalLabelPosition=middle;labelBackgroundColor=#ffffff;verticalAlign=middle;labelPosition=right;align=left;spacingLeft=20;part=1;points=[];imageAspect=0;image=data:image/svg+xml,PHN2ZyB4bWxucz0iaHR0cDovL3d3dy53My5vcmcvMjAwMC9zdmciIHhtbG5zOnY9Imh0dHBzOi8vdmVjdGEuaW8vbmFubyIgd2lkdGg9IjIwIiBoZWlnaHQ9IjIwIiB2aWV3Qm94PSIwIDAgMjAgMjAiPiYjeGE7CTxzdHlsZSB0eXBlPSJ0ZXh0L2NzcyI+JiN4YTsJLnN0MHtmaWxsOiM0Mjg1ZjQ7fSYjeGE7CS5zdDF7ZmlsbDojNjY5ZGY2O30mI3hhOwkuc3Qye2ZpbGw6I2FlY2JmYTt9JiN4YTsJLnN0M3tmaWxsOiNmZmY7fSYjeGE7CTwvc3R5bGU+JiN4YTsJPHBhdGggY2xhc3M9InN0MCIgZD0iTTkgNmgydjEwSDl6Ii8+JiN4YTsJPHBhdGggY2xhc3M9InN0MSIgZD0iTTIwIDE3SDB2MmgyMHoiLz4mI3hhOwk8cGF0aCBjbGFzcz0ic3QyIiBkPSJNMTIgMTZIOHY0aDR6TTAgMGgyMHY2SDB6Ii8+JiN4YTsJPHBhdGggY2xhc3M9InN0MSIgZD0iTTEwIDBoMTB2NkgxMHoiLz4mI3hhOwk8cGF0aCBjbGFzcz0ic3QzIiBkPSJNMiAyaDJ2MkgyeiIvPiYjeGE7CTxwYXRoIGNsYXNzPSJzdDIiIGQ9Ik0wIDhoMjB2NkgweiIvPiYjeGE7CTxwYXRoIGNsYXNzPSJzdDEiIGQ9Ik0xMCA4aDEwdjZIMTB6Ii8+JiN4YTsJPHBhdGggY2xhc3M9InN0MyIgZD0iTTIgMTBoMnYySDJ6Ii8+JiN4YTs8L3N2Zz4=;" parent="47" vertex="1">
                    <mxGeometry width="30" height="30" relative="1" as="geometry">
                        <mxPoint x="15" y="15" as="offset"/>
                    </mxGeometry>
                </mxCell>
                <mxCell id="54" value="" style="strokeColor=#dddddd;shadow=1;strokeWidth=1;rounded=1;absoluteArcSize=1;arcSize=2;" parent="2" vertex="1">
                    <mxGeometry x="420" y="100" width="130" height="60" as="geometry"/>
                </mxCell>
                <mxCell id="55" value="Artifact&#10;Registry" style="editableCssRules=.*;fontColor=#999999;shape=image;verticalLabelPosition=middle;labelBackgroundColor=#ffffff;verticalAlign=middle;labelPosition=right;align=left;spacingLeft=20;part=1;points=[];imageAspect=0;image=data:image/svg+xml,PHN2ZyB4bWxucz0iaHR0cDovL3d3dy53My5vcmcvMjAwMC9zdmciIHhtbG5zOnY9Imh0dHBzOi8vdmVjdGEuaW8vbmFubyIgd2lkdGg9IjIxLjk5OTAwMDU0OTMxNjQwNiIgaGVpZ2h0PSIyMC4zOTM5OTkwOTk3MzE0NDUiIHZpZXdCb3g9IjAgMCAyMS45OTkwMDA1NDkzMTY0MDYgMjAuMzkzOTk5MDk5NzMxNDQ1Ij4mI3hhOwk8c3R5bGUgdHlwZT0idGV4dC9jc3MiPiYjeGE7CS5zdDB7ZmlsbDojNDI4NWY0O2ZpbGwtcnVsZTpldmVub2RkfSYjeGE7CTwvc3R5bGU+JiN4YTsJPHBhdGggY2xhc3M9InN0MCIgZD0iTTUgMHYyLjQ1OEwxLjk5OSA0LjE5N3YxMi4wMUw1IDE3LjkzOHYyLjQ1NmwtNS0yLjg4N1YyLjg4NnptMTIgMGw0Ljk5OSAyLjg4NnYxNC42MjFMMTcgMjAuMzk0di0yLjQ1NmwzLTEuNzMxVjQuMTk3bC0zLTEuNzM5em0tNi4wMTYgNi42NzNsMi45NDctMS42NDYtMi45NDctMS42NDYtMi45NDcgMS42NDZ6bTMuMjY4LTEuMDk2bC0yLjg3MSAxLjY3OHYzLjI4N2wyLjg3MS0xLjY3NnpNNy43NzMgOC44NjZsMi44NzEgMS42NzRWNy4yNTZMNy43NzMgNS41Nzd6bS0uMjEyIDMuODc4bDIuODItMS42NDYtMi44Mi0xLjY0Ni0yLjgyIDEuNjQ2em0zLjEzMi0xLjA5OGwtMi44NzEgMS42Nzh2My4yODdsMi44NzEtMS42NzZ6bS02LjI2NCAzLjI4OUw3LjMgMTYuNjA5di0zLjI4NWwtMi44NzEtMS42Nzl6bTEwLjAyOS0yLjE5MWwyLjgyLTEuNjQ2LTIuODItMS42NDYtMi44MiAxLjY0NnptMy4xMzItMS4wOThsLTIuODcxIDEuNjc4djMuMjg3bDIuODcxLTEuNjc2em0tNi4yNjQgMy4yODlsMi44NzEgMS42NzR2LTMuMjg1bC0yLjg3MS0xLjY3OXoiLz4mI3hhOzwvc3ZnPg==;" parent="54" vertex="1">
                    <mxGeometry width="30" height="27" relative="1" as="geometry">
                        <mxPoint x="15" y="16" as="offset"/>
                    </mxGeometry>
                </mxCell>
                <mxCell id="69" value="" style="group" parent="2" vertex="1" connectable="0">
                    <mxGeometry x="420" y="188" width="130" height="60" as="geometry"/>
                </mxCell>
                <mxCell id="57" value="" style="strokeColor=#dddddd;shadow=1;strokeWidth=1;rounded=1;absoluteArcSize=1;arcSize=2;" parent="69" vertex="1">
                    <mxGeometry width="130" height="60" as="geometry"/>
                </mxCell>
                <mxCell id="56" value="" style="sketch=0;html=1;dashed=0;whitespace=wrap;fillColor=#2875E2;strokeColor=#ffffff;points=[[0.005,0.63,0],[0.1,0.2,0],[0.9,0.2,0],[0.5,0,0],[0.995,0.63,0],[0.72,0.99,0],[0.5,1,0],[0.28,0.99,0]];verticalLabelPosition=bottom;align=center;verticalAlign=top;shape=mxgraph.kubernetes.icon;prIcon=secret" parent="69" vertex="1">
                    <mxGeometry x="14" y="12" width="35" height="36" as="geometry"/>
                </mxCell>
                <mxCell id="59" value="Secret Manaer" style="text;html=1;strokeColor=none;fillColor=none;align=center;verticalAlign=middle;whiteSpace=wrap;rounded=0;fontColor=#616161;" parent="69" vertex="1">
                    <mxGeometry x="60" y="15" width="60" height="30" as="geometry"/>
                </mxCell>
                <mxCell id="35" value="" style="edgeStyle=orthogonalEdgeStyle;fontSize=12;html=1;endArrow=blockThin;endFill=1;rounded=0;strokeWidth=2;endSize=4;startSize=4;dashed=0;strokeColor=#4284F3;exitX=0.5;exitY=1;exitDx=0;exitDy=0;entryX=0.5;entryY=0;entryDx=0;entryDy=0;" parent="2" source="14" target="31" edge="1">
                    <mxGeometry width="100" relative="1" as="geometry">
                        <mxPoint x="156" y="208" as="sourcePoint"/>
                        <mxPoint x="256" y="208" as="targetPoint"/>
                    </mxGeometry>
                </mxCell>
                <mxCell id="76" value="" style="edgeStyle=orthogonalEdgeStyle;fontSize=12;html=1;endArrow=blockThin;endFill=1;rounded=0;strokeWidth=2;endSize=4;startSize=4;dashed=0;strokeColor=#4284F3;entryX=0.5;entryY=1;entryDx=0;entryDy=0;exitX=0.5;exitY=0;exitDx=0;exitDy=0;" edge="1" parent="2" source="40" target="31">
                    <mxGeometry width="100" relative="1" as="geometry">
                        <mxPoint x="-53" y="328" as="sourcePoint"/>
                        <mxPoint x="141" y="328" as="targetPoint"/>
                    </mxGeometry>
                </mxCell>
                <mxCell id="18" value="" style="edgeStyle=orthogonalEdgeStyle;fontSize=12;html=1;endArrow=blockThin;endFill=1;rounded=0;strokeWidth=2;endSize=4;startSize=4;dashed=0;strokeColor=#4284F3;exitX=1;exitY=0.5;exitDx=0;exitDy=0;startArrow=blockThin;startFill=1;" parent="1" source="63" target="14" edge="1">
                    <mxGeometry width="100" relative="1" as="geometry">
                        <mxPoint x="330.98" y="282.0039999999999" as="sourcePoint"/>
                        <mxPoint x="380" y="308" as="targetPoint"/>
                    </mxGeometry>
                </mxCell>
                <mxCell id="19" value="" style="html=1;verticalLabelPosition=bottom;align=center;labelBackgroundColor=#ffffff;verticalAlign=top;strokeWidth=2;strokeColor=#0080F0;shadow=0;dashed=0;shape=mxgraph.ios7.icons.smartphone;" parent="1" vertex="1">
                    <mxGeometry x="85" y="212" width="80" height="140" as="geometry"/>
                </mxCell>
                <mxCell id="21" value="" style="edgeStyle=orthogonalEdgeStyle;fontSize=12;html=1;endArrow=blockThin;endFill=1;rounded=0;strokeWidth=2;endSize=4;startSize=4;dashed=0;strokeColor=#4284F3;startArrow=block;startFill=1;entryX=0;entryY=0.5;entryDx=0;entryDy=0;" parent="1" source="19" target="63" edge="1">
                    <mxGeometry width="100" relative="1" as="geometry">
                        <mxPoint x="160" y="300" as="sourcePoint"/>
                        <mxPoint x="260" y="281" as="targetPoint"/>
                    </mxGeometry>
                </mxCell>
                <mxCell id="45" value="" style="edgeStyle=orthogonalEdgeStyle;fontSize=12;html=1;endArrow=blockThin;endFill=1;rounded=0;strokeWidth=2;endSize=4;startSize=4;dashed=0;strokeColor=#4284F3;exitX=0;exitY=0.5;exitDx=0;exitDy=0;entryX=0.5;entryY=1;entryDx=0;entryDy=0;" parent="1" source="40" target="63" edge="1">
                    <mxGeometry width="100" relative="1" as="geometry">
                        <mxPoint x="180" y="570" as="sourcePoint"/>
                        <mxPoint x="296" y="309" as="targetPoint"/>
                    </mxGeometry>
                </mxCell>
                <mxCell id="51" value="" style="dashed=0;outlineConnect=0;html=1;align=center;labelPosition=center;verticalLabelPosition=bottom;verticalAlign=top;shape=mxgraph.weblogos.github" parent="1" vertex="1">
                    <mxGeometry x="980" y="244.5" width="75" height="75" as="geometry"/>
                </mxCell>
                <mxCell id="63" value="" style="shape=image;verticalLabelPosition=bottom;labelBackgroundColor=default;verticalAlign=top;aspect=fixed;imageAspect=0;image=data:image/svg+xml,PHN2ZyB4bWxucz0iaHR0cDovL3d3dy53My5vcmcvMjAwMC9zdmciIGhlaWdodD0iOTZweCIgd2lkdGg9Ijk2cHgiIHZpZXdCb3g9IjAgMCA0OCA0OCI+PHBhdGggZD0iTTEyLjUsNDJoMjNjMy41OSwwLDYuNS0yLjkxLDYuNS02LjV2LTIzQzQyLDguOTEsMzkuMDksNiwzNS41LDZoLTIzQzguOTEsNiw2LDguOTEsNiwxMi41djIzQzYsMzkuMDksOC45MSw0MiwxMi41LDQyeiIgZmlsbD0iIzAwYzMwMCIvPjxwYXRoIGQ9Ik0zNy4xMTMsMjIuNDE3YzAtNS44NjUtNS44OC0xMC42MzctMTMuMTA3LTEwLjYzN3MtMTMuMTA4LDQuNzcyLTEzLjEwOCwxMC42MzdjMCw1LjI1OCw0LjY2Myw5LjY2MiwxMC45NjIsMTAuNDk1YzAuNDI3LDAuMDkyLDEuMDA4LDAuMjgyLDEuMTU1LDAuNjQ2YzAuMTMyLDAuMzMxLDAuMDg2LDAuODUsMC4wNDIsMS4xODVjMCwwLTAuMTUzLDAuOTI1LTAuMTg3LDEuMTIyYy0wLjA1NywwLjMzMS0wLjI2MywxLjI5NiwxLjEzNSwwLjcwN2MxLjM5OS0wLjU4OSw3LjU0OC00LjQ0NSwxMC4yOTgtNy42MTFoLTAuMDAxQzM2LjIwMywyNi44NzksMzcuMTEzLDI0Ljc2NCwzNy4xMTMsMjIuNDE3eiBNMTguODc1LDI1LjkwN2gtMi42MDRjLTAuMzc5LDAtMC42ODctMC4zMDgtMC42ODctMC42ODhWMjAuMDFjMC0wLjM3OSwwLjMwOC0wLjY4NywwLjY4Ny0wLjY4N2MwLjM3OSwwLDAuNjg3LDAuMzA4LDAuNjg3LDAuNjg3djQuNTIxaDEuOTE3YzAuMzc5LDAsMC42ODcsMC4zMDgsMC42ODcsMC42ODdDMTkuNTYyLDI1LjU5OCwxOS4yNTQsMjUuOTA3LDE4Ljg3NSwyNS45MDd6IE0yMS41NjgsMjUuMjE5YzAsMC4zNzktMC4zMDgsMC42ODgtMC42ODcsMC42ODhzLTAuNjg3LTAuMzA4LTAuNjg3LTAuNjg4VjIwLjAxYzAtMC4zNzksMC4zMDgtMC42ODcsMC42ODctMC42ODdzMC42ODcsMC4zMDgsMC42ODcsMC42ODdWMjUuMjE5eiBNMjcuODM4LDI1LjIxOWMwLDAuMjk3LTAuMTg4LDAuNTU5LTAuNDcsMC42NTJjLTAuMDcxLDAuMDI0LTAuMTQ1LDAuMDM2LTAuMjE4LDAuMDM2Yy0wLjIxNSwwLTAuNDItMC4xMDMtMC41NDktMC4yNzVsLTIuNjY5LTMuNjM1djMuMjIyYzAsMC4zNzktMC4zMDgsMC42ODgtMC42ODgsMC42ODhjLTAuMzc5LDAtMC42ODgtMC4zMDgtMC42ODgtMC42ODhWMjAuMDFjMC0wLjI5NiwwLjE4OS0wLjU1OCwwLjQ3LTAuNjUyYzAuMDcxLTAuMDI0LDAuMTQ0LTAuMDM1LDAuMjE4LTAuMDM1YzAuMjE0LDAsMC40MiwwLjEwMywwLjU0OSwwLjI3NWwyLjY3LDMuNjM1VjIwLjAxYzAtMC4zNzksMC4zMDktMC42ODcsMC42ODgtMC42ODdjMC4zNzksMCwwLjY4NywwLjMwOCwwLjY4NywwLjY4N1YyNS4yMTl6IE0zMi4wNTIsMjEuOTI3YzAuMzc5LDAsMC42ODgsMC4zMDgsMC42ODgsMC42ODhjMCwwLjM3OS0wLjMwOCwwLjY4Ny0wLjY4OCwwLjY4N2gtMS45MTd2MS4yM2gxLjkxN2MwLjM3OSwwLDAuNjg4LDAuMzA4LDAuNjg4LDAuNjg3YzAsMC4zNzktMC4zMDksMC42ODgtMC42ODgsMC42ODhoLTIuNjA0Yy0wLjM3OCwwLTAuNjg3LTAuMzA4LTAuNjg3LTAuNjg4di0yLjYwM2MwLTAuMDAxLDAtMC4wMDEsMC0wLjAwMWMwLDAsMC0wLjAwMSwwLTAuMDAxdi0yLjYwMWMwLTAuMDAxLDAtMC4wMDEsMC0wLjAwMmMwLTAuMzc5LDAuMzA4LTAuNjg3LDAuNjg3LTAuNjg3aDIuNjA0YzAuMzc5LDAsMC42ODgsMC4zMDgsMC42ODgsMC42ODdzLTAuMzA4LDAuNjg3LTAuNjg4LDAuNjg3aC0xLjkxN3YxLjIzSDMyLjA1MnoiIGZpbGw9IiNmZmYiLz48L3N2Zz4=;" parent="1" vertex="1">
                    <mxGeometry x="233" y="234" width="96" height="96" as="geometry"/>
                </mxCell>
                <mxCell id="66" value="" style="shape=image;verticalLabelPosition=bottom;labelBackgroundColor=default;verticalAlign=top;aspect=fixed;imageAspect=0;image=data:image/svg+xml,PHN2ZyB4bWxucz0iaHR0cDovL3d3dy53My5vcmcvMjAwMC9zdmciIGhlaWdodD0iOTZweCIgd2lkdGg9Ijk2cHgiIHZpZXdCb3g9IjAgMCA0OCA0OCI+PHBvbHlnb24gcG9pbnRzPSIxNywyMyA1LDE2IDUsMiAxNyw5IiBmaWxsPSIjNjA0MmVhIi8+PHBvbHlnb24gcG9pbnRzPSIzMSwzMSAxOSwyNCAxOSwxMCAzMSwxNyIgZmlsbD0iIzYwNDJlYSIvPjxwb2x5Z29uIHBvaW50cz0iMzMsMzEgNDUsMjQgNDUsMTAgMzMsMTciIGZpbGw9IiM0MDQwYjIiLz48cG9seWdvbiBwb2ludHM9IjMxLDQ3IDE5LDQwIDE5LDI2IDMxLDMzIiBmaWxsPSIjNjA0MmVhIi8+PC9zdmc+;" parent="1" vertex="1">
                    <mxGeometry x="980" y="352" width="76" height="76" as="geometry"/>
                </mxCell>
                <mxCell id="71" value="" style="shape=image;imageAspect=0;aspect=fixed;verticalLabelPosition=bottom;verticalAlign=top;image=data:image/png,iVBORw0KGgoAAAANSUhEUgAAAQAAAAEACAYAAABccqhmAAAACXBIWXMAAAsTAAALEwEAmpwYAAAR40lEQVR4nO2dWXBV933HSaZ5aR7TNDV24jiWBAgLQ5GI63bamTRtX9okdmuTmeQ1D0mx46VNOtMHaq723aAFIQmQkhgTZ7EkFkMCEmLRgnS1XAmxODbUIFYncbBNEKB/5xz1Ckl3OfdeSef/+5/z+cx8ZzzmVZ/POffesyxZAgAAAAAAAAAAAAAAAAAAAAAAAAAAAAAAAAAAAAAAAAAAAAAAAAAAAAAAAAAAAAAAAAAAAJAwr315+HPN2aEnm9eNfqN53egzqW/4mea1ztuxIBtw3ur7a5jX+lJaXXhZyawnYgdevvzn/DnDgtK8avDTzetCP2jKCfU354yo+a4pJ6Sasp02rHbO3NpoG7K3Y+7+cuYG7W2PtzUD02uMueDUVgdVQ8z1z1q9tcfnri9i28JbFd7JiNVFrFfVZUWup/K90z1bLn4GBWBBsI7WTTmh8YUQH/kXV/6tWb2qv3r8bn/t+AARgHnTnB3a1JQTmkT+qSN/o3D5rfVVXZoM1o4rIgDzojk79B8LJT5Hfnfkt88AqsaVFQAiACmzY23or5uyR+4iv1nyzw0AEYCUaMoZOY785sm/NasnIgBEAJJiZ87o3yK/OZ/5Z8ofKwBEABKmOWekgs/85h357T0WOwBEABKiOXvkpN+/8Gs0VH47ANWXYgaACIAj8/3NH/n1yZ9IAIgAxKUpJ3Tbr/KbetqfbACIAMSkOWdkwo/ym3zaH15tEgEgArBgATBd/gaPyJ9sAIgAzDsApsvvlSN/qgEgApByAEyX30tH/ql1pxQAIgBJB8B0+Rs9KP98AkAEIOEAIL9M+ecbACIAjgEwXX4vnvYvZACIgM+JFwDT5ffqaf+sANTMPwBEwMfECoDp8nv9yG9v5cIFgAj4lGgBMF3+Rp/IX7PAASACPmRuAJDfHPkXIwBEwMcBQH6z5F+sABABHwYA+c2Tv2Zl16IFgAj4KADIb6b8ix2A/49AkEeOe5imnNAEX/iZKb8bASACHqcp2ykAfNsvVX63AkAEfBsA5Jcsv7WgSwEgAr4LAPJLl9/tABAB3wQA+U2Q3w7AAtwLQAR8TGQAkN8U+asz9QSAMwHPBgD5TZJfZwCIgOcCgPymyV+deUJrAIJcJ+CVACC/ifLbAajRJ3+QCJhPU/bwBHf1mSn/VAD0ngEEiYDZ7JwZAG7pNUp+KWcAQSLggQAgv3Hy2wEQID4RMD0AyG+k/Nb6q2R8BAhyJmAmO9dGCwBP8jFBfmvH8y9oFz5IBLwUAOQ3RX5rB18+p132IBHwSgCQ3yT5qzJPqN1PDWkXPUgEvBAA5DdN/qrM46p2VZfqKX9Pu+hBImByAJDfRPmrVkztZ+tD2iUPEgEz2bl2yA4Aj+42U35r1ZnH1aEfvK1d8iARMDMAyG+u/OHVru5SR195N1UxiYBf2TE3ALy0wzj5p88Esk6ogy/K/VUgeD84PGhUZACQ31j5t9g7Zu9H/9SvOje+o130IBEwKADI7wn57S2fWv2Xe9Qbzw6rtu+cUkf+5111ouCCOhY4rw7/92/UwZfPqoMvRe5AQjuT+F6M3Fsvnp789Q/P3dj//OkDG5ds/KRuB3yNHQDk95z8c7d5+dHoW3Z/ry7rjL8Ma0dUpeM67FWkx1u7vbq1fZ/S7YCv2bFmZgB4USfyuyd/OQGQFADkR3535S8nAFICgPzI77785Wl8BNDOjjWDdgC2x9uagek1xlxwaqun1hB1/bNWb+3xuTP/dV185u9ISH4CICQAyI/8bh/5ywmADLbHCwBHfo78iyh/OR8BBAcA+ZF/keUvJwBCA4D8yO+C/OVph7kOQFwAkB/5XZK/nAAICwDyI7+L8pcTAEEBQH7kd1n+MgIgJADIj/wa5C8jAPrZvnpgOgBc5MNFPm7KX0YA5AQA+ZHfbfnLCICMACA/8uuQv+xRfgbUTmPMAHBtP9f2L678ZQRAagCQH/kXX/6yRw9xIZC8ACA/8rsjfxkBkBYA5Ed+9+QvIwCSAoD8yO+u/GUEQEoAkB/53Ze/lADop3F1cCoAPMmHJ/m4LH8pARASAORHfg3ylxIA/TQ+PhUAnuHHc/vdlr+UAMgIAPIjvw75SwmAfhqiBoCn9/r9jT1uyF/6pV9zIZC8ACA/8rsjfykBkBYA5Ed+9+QvJQCSAoD8yO+u/KUEQEoAkB/53Ze/hADop+Hx/lkB4HVdfOHnlvwlBEBWAJAf+d2Uv4QAyAkA8iO/2/KXEAAZAUB+5NchfwkB0E+9FQBe0c1FPhrkL/nSr7gQSDf1q+YGoC9i28JbFd7JiNVFrFfVZUVua8R6psYrun0nfwkBkBYA5OfyXvfkLyEAkgKA/Mjvrvwlj/ARQEgAkB/53Ze/hADop35V34RJn/lf++chNfzjy+p3795Sd2/fs/f787dU6CeX1a5/GbQf7FGdGV7sO/q4q0+//MUEQF4ApMpfm9WtgvWX1L27kyoW1r8FGy6pmqxu5DdA/mICICsAUuWveaxbnWm9rhLl7N7rqnplYkf+tw/cmOeuO+6c095KdNcS2u71QSPkLyYAcgIgVv6V3aoz912VLJ157yR02u9F9r4waoT8xQRARgAky1+f3atu/fZO0hL88fd31LacHsfP/J4NgAHyFz9ykAuBdLMtHACB8ls78OLZlEU48PIZxy/8/BMAefIXEwAhARAqv7XBneMpizD0o3HHb/v9EQCZ8hcTAP1sywoHQJ781k96Z9oS//JvLuf233B8gKf3AyBX/mICICUAMuW3Ftp1JWURRn56xfHpvd4OgGz5iwmAfrZl9U5Ild9aZ+47KYtwtOAdxyv8vBsA+fIXf5EvAcUFQJL81pq/0h/34p9YTN6dVE1f7XN8br8X2fvCiBHyFxEAWQGQJn94o29cTVqCU7+4mtBLO7wcAOnyFxEAOQGQKr+1+nW96v1zHycswAfv3VINT/Ym9MYeL2IFwAT5iwiAjABIlj98Y0/TV/rU9bEPHf/4r5/+UDX9ffRTf17XJUv+oi8e4EIg3dRFBECe/OGLebau6VbHS86rm5dvR4h/88ptdaL0vKpd3YX8hshfRACkBUCu/LO28oTa9bVBtfe7Y2rPd8fUa18fiPtzH0d+mfIXEQBJATBEfu7n94z8RQRASgCQ38+v6NYlfxEB0E9dVs8ER37k1yF/EQHQT91jkQHgtJ8jvxvyFxIAeQFAfuR3S/7Ch/kZUFQAkB/53ZS/kADICQDyI7/b8hc+/BYXAkkIAPIjvw75CwmAfmojAsDv/PzU5478hQRAWgCQH/ndk7+QAEgKgEHyZx5Xu74xqPZ875S9XU9ZlwIfU1uWRy7qBT5c5CNC/kICICUAZsi/dU2X6qq4oD68Gnkz0IfXbquuCutmoBPIb4j8hQRAP7WPdU+YIL91i++NMx853g584+xH9pOAkjryL48x+9+PqErHddiryIi3dnvl4aVH2+Hplc3d9KW+h2atNNoMkb+QAAgJgHD5G57oUb87fyvhB2J8cPGWqn+yOyH5vcie50NGyF9AAPRTu3J2AKTJb816vFeynPrl1YQ+83s5ANLlLyAAsgIgUX7rSUDWAz6TZfKeUju/etLxCz+vBsAE+Qse3s+FQFICIFF+a0fm8VjwzvzfON7S60XaogZAnvwFXyAAIgIgVX7rST6h1y+nLMLI7suO9/P7IwAy5S8gAPqpmRUAWfJbT+093XotZRHO7rvu+DAP7wdArvwFBEBSAOTJby24/WLKIgw2X3J8ko+3AyBb/gICICUAMuW3tu+5sZRF2Pf9U46P8fJuAOTLX0AA9FOzsmtCqvzWpbzWlX0f35hIWoKPfzuhatYcd7y234u0PT9shPwFBEBgAATJH177xreTlqD9lXMJ3djj6QAIlz+fAAgLgED5wzv188QvBhp78+qMS3njP7337P5r6uxb16PM+v/Xpv59gXYm5q46b1/i+8m/9Rohfz4BEBQAwfLbyzyqeqovqHt3Yl8UZP1bb80FtXkFj+42Qf58AiAkAMLln3lJb9M/nlTBHRfV++c+Undu3bNn/bf1/6x/435+M478+fb2cSWgbmoyuyZMkZ/7+b0lfz4B0E/1rAAgP2/scU/+/M9zBiAoAMiP/O7Kn08ApAQA+ZHfffnzCYB+qjNPxAwAn/n99aJOt+XPJwByA4D8yL/Y8ucTAJkBQH7kd0P+PAIgLwDIj/xuyZ9HAGQFAPmR30358z6/lwuBpAQA+ZHfbfnzCICMACA/8uuQP48A6KdqRTgAhlzeu7xTvfGtIdVb+79qrOWqvd7aC+qNbw+qV5ffv8vv/jrs8Tu/PPnzCICUAJgh/+5nB9TVkZsx7wa8NnpT7V4/gPyGyJ9HAPRTteL4hAny73thTN29fc/xWQB3JybV/pfGEj7y7/3+qMNGprdn7p6PvrZoey6UwIYj1prINgyrlhmr+asjRsif9xBfAooOgKQjfyLyz4zA7vXBhE77vUjrc0NGyJ9HAOQGQNJn/suDf0hagmtjN6de2BlHfuvSXj8EQKr8eQRAZgDEyL+sU/10/WDKIuz+5kBc+f0QAMny5xIAeQGQJL+17s3nUxahp+ZCXPmtG3m8HADp8uc+tIcLgSQFQJr81gM8T/38SsoijL15Ja78Xg6ACfLnEgA5AZAov/X03tGfpf5uwFO/vOJ4S68XabECYID8uQRARgCkym9dyNM1n48A1ecd7+f3Ii0bhoyQP5cA6GeLHQCZ8lt7/ZlgyiK8bv8UGP9hHt4NgHz5cwmAfrasODYhVf7wxoMfJC3BleE/qIoM5yf5eJGWDYNGyJ9LAPSzZXnsAEiQ39qup4Pq7h+TuBDo9j2161/7E3qMl58CIE3+XAIgNwBS5A9vz3OjCUXAkt+6hDfRZ/i1bbAuwR25vw3hhWatNeqGk9u/T60lYkOR+96QenPWBhNezRMdRsif+yA/A4oMgDT5w3f17Xq6X10e/CDuaf9rT/fxAE9D5A8QAHkBkCr/9I09GR32F4PWrwOjv7hi/9Rn/ffrz/Yn9Jmfp/fKkT/wYBsXAkkKgHj5HW7sQX6z5A8QADkBQH6e2++2/AECICMAyI/8OuQPEAD9bLYDwGk/b+xxX/4AAdDP5uVH7weAz/y8rstF+QMEQFAAkB/5XZY/QACEBAD5kV+D/AECoJ/Ny6IHgJ/6/PWWXh3yBwiAzAAgP/K7IX+AAMgLAPIjv1vyBwiArAAgP/K7KX+AAMgJAPIjv9vyBwiAjAAgP/LrkD9AAPTz6rLO6AHgxh6+7V9k+QMEQGgAkB/5XZA/QAAEBgD5kd8l+QMEQFgAkB/5XZQ/QAAEBQD5kd9l+QMEQEgAkB/5NcgfIAD6eTXjfgB4jBfX9rspf4AAyAkA8iO/2/IHCICMACA/8uuQP0AA9FOZcSR+AHh6L7f0EgCfBgD5kX8R5Q9wBiA4AMiP/Issf4AACA0A8iO/C/IHCIDAACA/8rskf4AACAsA8iO/i/IHCICgACA/8rssf4AACAkA8iO/BvkDBEA/lelWAHhLL4/uJgC+pDK9Y4JXdPPcfs4AfEqFYwA67FWkx1u7vfLw0qLt8PTK5u7R8HhLr6SXdvARYInfA4D8fn1jDwHwCZXpHbeRn9d16QrAxiXtf6LbAV9Tkd5xiSM/7+rTEoClre/r/vv3PRXpR3o57edFnZoCMOx7AXVTkXGklM/8vKVXRwA2PdhWpfvv3/dUZrT/DV/4+fsV3br2ygMt/+B7ASVQmd5xjJ/6kN/do3/rwMYlGz+p+28frMeCpbU/UZHWcYff+TnyuxSAe6881Pp3yCeIirT2F7jIh9N+dwLQ+l+6/94hCuVpHRvL09snucKPz/yLdNo/GVjamq+WqE8goFDK0jueqkjruMjlvXzht6DyL20d37S05Vndf9+QAHUPtP5pRcbhl8rT2nvK0g9Pcm0/3/anesTftLT15Kalrf9Z8rkDn0Y+AynNaP+zykc6ckofPfS1srSOZ6Z2aGH2yOwVR93BRV2BtS+Et9+V5U5vT+Qe9MAeaPl67kNt6/L+Yt9ndf/9AgAAAAAAAAAAAAAAAAAAAAAAAAAAAAAAAAAAAAAAAAAAAAAAAAAAAAAAAAAAAAAAAAAAwBKD+D9DLTi6goxcdwAAAABJRU5ErkJggg==;" vertex="1" parent="1">
                    <mxGeometry x="81" y="420" width="86" height="86" as="geometry"/>
                </mxCell>
                <mxCell id="72" value="" style="edgeStyle=orthogonalEdgeStyle;fontSize=12;html=1;endArrow=blockThin;endFill=1;rounded=0;strokeWidth=2;endSize=4;startSize=4;dashed=0;strokeColor=#4284F3;exitX=0.488;exitY=0.993;exitDx=0;exitDy=0;entryX=0.5;entryY=0;entryDx=0;entryDy=0;exitPerimeter=0;" edge="1" parent="1" source="19" target="71">
                    <mxGeometry width="100" relative="1" as="geometry">
                        <mxPoint x="370" y="590.5" as="sourcePoint"/>
                        <mxPoint x="215" y="335.5" as="targetPoint"/>
                    </mxGeometry>
                </mxCell>
                <mxCell id="73" value="" style="edgeStyle=orthogonalEdgeStyle;fontSize=12;html=1;endArrow=blockThin;endFill=1;rounded=0;strokeWidth=2;endSize=4;startSize=4;dashed=0;strokeColor=#4284F3;exitX=1;exitY=0.5;exitDx=0;exitDy=0;entryX=0;entryY=0.5;entryDx=0;entryDy=0;" edge="1" parent="1" source="71" target="31">
                    <mxGeometry width="100" relative="1" as="geometry">
                        <mxPoint x="134.03999999999996" y="361.02" as="sourcePoint"/>
                        <mxPoint x="134" y="430" as="targetPoint"/>
                    </mxGeometry>
                </mxCell>
            </root>
        </mxGraphModel>
    </diagram>
</mxfile>